<svg width="48" height="48" viewBox="0 0 48 48" fill="none" xmlns="http://www.w3.org/2000/svg">
<path fill-rule="evenodd" clip-rule="evenodd" d="M12 36H4L4 44H12V36ZM4 33C2.34315 33 1 34.3431 1 36V44C1 45.6569 2.34315 47 4 47H12C13.6569 47 15 45.6569 15 44V36C15 34.3431 13.6569 33 12 33H4Z" fill="#1B344B"/>
<path fill-rule="evenodd" clip-rule="evenodd" d="M28 36H20L20 44H28V36ZM20 33C18.3431 33 17 34.3431 17 36V44C17 45.6569 18.3431 47 20 47H28C29.6569 47 31 45.6569 31 44V36C31 34.3431 29.6569 33 28 33H20Z" fill="#1B344B"/>
<path fill-rule="evenodd" clip-rule="evenodd" d="M44 36H36L36 44H44V36ZM36 33C34.3431 33 33 34.3431 33 36V44C33 45.6569 34.3431 47 36 47H44C45.6569 47 47 45.6569 47 44V36C47 34.3431 45.6569 33 44 33H36Z" fill="#1B344B"/>
<path fill-rule="evenodd" clip-rule="evenodd" d="M28 20H20L20 28H28V20ZM20 17C18.3431 17 17 18.3431 17 20V28C17 29.6569 18.3431 31 20 31H28C29.6569 31 31 29.6569 31 28V20C31 18.3431 29.6569 17 28 17H20Z" fill="#1B344B"/>
<path fill-rule="evenodd" clip-rule="evenodd" d="M12 4H4L4 12H12V4ZM4 1C2.34315 1 1 2.34315 1 4V12C1 13.6569 2.34315 15 4 15H12C13.6569 15 15 13.6569 15 12V4C15 2.34315 13.6569 1 12 1H4Z" fill="#1B344B"/>
<path fill-rule="evenodd" clip-rule="evenodd" d="M12 20H4L4 28H12V20ZM4 17C2.34315 17 1 18.3431 1 20V28C1 29.6569 2.34315 31 4 31H12C13.6569 31 15 29.6569 15 28V20C15 18.3431 13.6569 17 12 17H4Z" fill="#1B344B"/>
</svg>
